<?xml version="1.0" standalone="no"?>
<!DOCTYPE svg PUBLIC "-//W3C//DTD SVG 20010904//EN"
 "http://www.w3.org/TR/2001/REC-SVG-20010904/DTD/svg10.dtd">
<svg version="1.0" xmlns="http://www.w3.org/2000/svg"
 width="1080.000000pt" height="964.000000pt" viewBox="0 0 1080.000000 964.000000"
 preserveAspectRatio="xMidYMid meet">
<metadata>
Created by potrace 1.10, written by Peter Selinger 2001-2011
</metadata>
<g transform="translate(0.000000,964.000000) scale(0.100000,-0.100000)"
fill="#000000" stroke="none">
<path d="M1085 9247 c-27 -13 -63 -27 -80 -31 -16 -4 -35 -16 -43 -27 -10 -15
-25 -19 -65 -19 -55 0 -79 -15 -85 -55 -2 -11 -14 -29 -26 -40 -12 -11 -28
-32 -36 -48 -7 -15 -18 -26 -24 -25 -6 0 -18 -1 -26 -4 -66 -24 -116 -39 -180
-53 -42 -9 -80 -19 -85 -23 -21 -15 -35 -53 -29 -79 6 -22 4 -25 -10 -20 -20
8 -21 -7 -1 -27 8 -8 15 -17 15 -21 0 -16 56 -78 83 -91 26 -14 30 -14 43 3
13 17 13 17 14 -3 0 -24 55 -54 100 -54 34 0 51 19 18 21 -17 1 -18 3 -5 6 9
2 17 12 17 21 0 13 3 12 15 -5 13 -19 19 -20 56 -12 23 6 49 14 58 19 13 8 12
9 -6 10 -45 0 -29 15 17 16 l48 0 -20 -50 c-11 -28 -30 -62 -43 -76 -14 -15
-26 -41 -28 -64 -4 -33 -1 -43 19 -59 32 -24 30 -33 -7 -46 -24 -8 -29 -15
-24 -31 3 -11 3 -50 -1 -88 -6 -67 -7 -69 -35 -69 -16 0 -29 4 -29 9 0 4 -7 8
-16 8 -8 0 -20 13 -25 29 -8 23 -19 31 -53 40 -30 7 -46 18 -54 36 -15 32 -30
32 -72 -5 -19 -16 -43 -29 -53 -30 -10 0 -20 -7 -23 -15 -4 -8 -11 -15 -16
-15 -6 0 -8 7 -4 15 3 9 0 15 -10 15 -8 0 -17 7 -20 15 -14 36 -31 10 -47 -74
-16 -86 -37 -138 -78 -190 -11 -13 -19 -28 -19 -34 0 -6 -14 -32 -31 -58 -43
-68 -44 -141 0 -226 17 -34 31 -68 31 -75 1 -36 70 -79 70 -45 0 34 60 58 104
41 8 -3 42 -39 76 -79 49 -60 68 -76 97 -81 22 -4 50 -21 70 -40 36 -36 66
-42 97 -19 29 22 42 19 76 -19 l31 -34 39 15 c25 10 40 23 44 39 8 32 55 33
75 2 11 -18 11 -23 -1 -32 -10 -8 -17 -38 -20 -99 l-6 -87 29 -21 c38 -27 37
-37 -6 -55 -19 -8 -35 -18 -35 -23 0 -4 19 -13 41 -20 23 -7 52 -24 64 -37 16
-17 44 -29 89 -39 37 -7 73 -19 81 -25 7 -6 24 -8 38 -5 19 5 28 2 36 -14 14
-26 -11 -71 -40 -71 -11 0 -29 -5 -42 -12 -12 -6 -29 -14 -37 -18 -8 -4 -29
-35 -46 -69 -32 -66 -48 -83 -71 -74 -7 3 -13 0 -13 -6 0 -6 -15 -11 -34 -11
-25 0 -40 7 -55 26 -12 15 -21 31 -21 35 0 5 20 14 44 21 63 17 139 87 134
125 -2 22 -9 29 -30 31 -24 3 -27 0 -25 -25 l2 -28 -65 3 c-35 2 -81 -2 -101
-8 -32 -11 -45 -9 -103 10 -37 12 -73 19 -81 16 -40 -15 10 -66 65 -66 40 0
62 -40 38 -67 -9 -10 -22 -36 -29 -58 -8 -22 -26 -50 -40 -62 -15 -13 -29 -36
-32 -51 -5 -25 -12 -30 -46 -36 -28 -4 -51 -1 -75 10 -33 16 -35 16 -61 -5
-15 -11 -34 -21 -41 -21 -17 0 -44 -39 -44 -66 0 -27 36 -60 61 -56 11 2 19 0
18 -5 -1 -4 0 -12 1 -18 2 -5 3 -30 4 -54 1 -44 2 -45 62 -75 33 -17 68 -37
77 -45 9 -7 45 -15 79 -18 58 -5 64 -3 73 18 16 36 40 46 60 25 22 -21 61 -14
87 16 10 12 18 22 18 24 0 4 -62 -15 -68 -21 -3 -3 -16 2 -30 11 -30 20 -65
12 -86 -21 -21 -31 -67 -33 -116 -5 -19 11 -57 31 -83 45 -45 24 -48 28 -42
56 8 35 -27 99 -55 99 -18 0 -33 31 -21 46 3 5 23 17 43 28 32 16 42 17 67 6
58 -24 151 13 151 60 0 9 11 27 25 40 13 12 29 38 35 56 7 19 15 34 19 34 4 0
14 18 21 40 10 31 10 43 1 54 -10 12 -8 16 8 21 26 8 170 10 177 2 4 -3 -18
-17 -49 -31 -86 -38 -95 -78 -28 -125 33 -24 63 -26 112 -9 35 12 89 63 89 85
0 43 38 77 95 85 22 3 42 22 68 61 14 22 15 31 6 49 -18 33 -31 43 -63 46 -16
2 -46 10 -68 18 -23 8 -53 14 -69 14 -17 0 -40 12 -62 33 -29 27 -33 37 -29
69 3 29 0 38 -17 48 -20 10 -22 18 -19 98 3 81 4 87 23 84 16 -2 17 -1 5 7
-25 17 -1 26 62 23 34 -2 66 2 74 8 7 7 17 9 22 6 6 -3 9 2 8 11 -1 14 7 17
44 15 25 -2 60 -10 78 -18 87 -39 102 -47 107 -65 4 -10 10 -19 14 -19 5 0 14
-15 21 -32 19 -47 38 -67 92 -94 25 -13 48 -27 50 -31 1 -4 30 -31 63 -59 52
-44 69 -53 125 -62 100 -17 183 0 303 63 16 8 34 15 42 15 7 0 39 29 71 64 32
36 62 62 67 59 5 -3 7 -21 5 -39 -2 -19 0 -34 4 -34 11 0 14 97 3 108 -10 11
-59 -15 -68 -36 -17 -37 -78 -91 -103 -92 -12 0 -24 -7 -28 -15 -3 -8 -11 -15
-18 -15 -7 0 -26 -7 -41 -15 -15 -8 -34 -12 -41 -9 -7 3 -16 -1 -19 -9 -8 -21
-111 -29 -179 -14 -48 10 -69 22 -123 71 -36 32 -84 68 -107 80 -31 16 -52 38
-84 91 -36 60 -47 71 -80 80 -22 6 -50 16 -63 24 -13 7 -48 16 -78 20 -50 7
-56 6 -70 -16 -14 -20 -23 -23 -85 -23 -70 0 -108 11 -108 32 0 9 3 9 12 0 7
-7 26 -12 43 -11 l30 1 -35 10 c-77 21 -101 19 -131 -11 -17 -17 -30 -24 -33
-17 -2 6 -5 3 -5 -6 -1 -27 -40 -22 -63 8 -17 21 -27 25 -62 22 -22 -2 -44 -7
-47 -12 -10 -12 -40 1 -78 34 -18 17 -44 30 -57 30 -14 0 -34 12 -47 27 -12
14 -30 35 -39 45 -10 10 -18 21 -18 25 0 4 -15 20 -32 35 -26 22 -43 28 -79
28 -30 0 -51 -6 -59 -15 -7 -9 -19 -14 -27 -11 -7 3 -13 0 -14 -7 0 -7 -5 -1
-11 13 -6 14 -22 49 -35 77 -37 81 -39 143 -5 206 29 54 62 108 72 117 5 5 44
89 46 100 0 3 6 18 12 33 7 16 12 39 12 51 0 30 9 37 30 24 10 -7 25 -8 36 -3
11 5 24 9 30 10 6 0 19 6 28 14 9 7 16 10 16 5 0 -5 7 1 15 14 l16 22 41 -30
c23 -17 45 -30 50 -30 11 0 77 -68 71 -73 -1 -2 16 -4 40 -5 62 -3 75 16 78
104 2 57 6 75 20 85 23 16 25 57 4 86 -8 12 -12 30 -9 40 12 37 28 63 39 63 6
0 11 8 12 18 1 9 7 36 14 59 18 59 3 76 -60 67 -25 -4 -50 -13 -54 -20 -10
-17 -49 -18 -64 -3 -8 8 -15 4 -27 -13 -9 -12 -17 -22 -19 -20 -1 2 -11 0 -21
-4 -12 -5 -21 -3 -24 4 -2 7 -10 12 -17 12 -7 0 -16 7 -19 16 -3 8 -16 15 -28
14 -41 -4 -58 0 -58 11 0 7 -8 19 -18 28 -24 22 -42 65 -32 81 4 7 5 21 3 31
-3 11 0 19 6 19 7 0 10 4 6 10 -6 9 70 35 130 43 17 3 48 12 70 21 22 8 54 18
70 20 17 3 36 14 43 25 8 11 23 30 34 43 11 13 29 40 39 61 18 34 37 44 72 38
18 -3 86 22 84 31 -4 18 122 61 172 59 33 -1 35 -5 32 -52 -2 -46 14 -70 60
-89 20 -9 29 -19 29 -36 0 -13 12 -49 27 -79 30 -61 46 -70 112 -62 39 4 41 3
58 -39 17 -40 21 -44 63 -49 51 -7 128 -32 150 -50 24 -18 80 -17 154 4 38 11
73 18 77 15 5 -3 9 0 9 5 0 6 10 11 23 12 31 0 109 33 101 42 -4 4 12 7 36 7
34 0 50 6 72 27 27 26 28 26 85 13 32 -7 66 -17 77 -22 13 -7 16 -7 12 1 -11
17 7 12 31 -8 13 -11 27 -31 32 -45 6 -14 28 -34 51 -46 29 -15 40 -27 40 -43
0 -52 -94 -49 -174 6 -57 39 -80 43 -116 17 -16 -12 -30 -27 -30 -34 0 -7 -13
-31 -29 -53 -19 -27 -27 -48 -24 -64 3 -19 -1 -28 -19 -36 -42 -20 -56 -22
-68 -7 -7 8 -25 14 -39 14 -24 0 -27 -4 -28 -36 -1 -20 -11 -50 -23 -65 -11
-16 -18 -34 -14 -40 3 -6 -8 -4 -24 5 -48 25 -74 20 -99 -20 -13 -20 -23 -40
-23 -46 0 -5 -11 -19 -24 -29 -31 -24 -45 -93 -23 -117 8 -9 17 -30 21 -46 4
-15 10 -26 13 -22 3 3 12 -2 19 -12 12 -16 13 -16 31 1 27 24 43 21 43 -7 0
-23 3 -24 43 -19 38 5 50 -5 12 -11 -9 -1 -20 -8 -24 -14 -5 -9 -14 -5 -31 13
-29 31 -47 33 -26 3 20 -28 20 -57 2 -84 -17 -24 -16 -106 1 -112 7 -2 16 3
19 12 3 9 16 16 28 16 11 0 35 9 51 21 17 11 39 24 50 30 11 5 28 14 37 21 29
21 65 -4 71 -49 4 -30 0 -46 -22 -78 -23 -34 -33 -40 -62 -39 -33 1 -34 -1
-36 -39 -2 -25 3 -44 11 -51 17 -13 10 -65 -8 -67 -6 0 12 -6 39 -12 48 -12
50 -14 55 -50 6 -42 5 -41 59 -32 35 6 81 -8 81 -25 0 -3 -18 -29 -40 -58 -30
-39 -39 -59 -34 -76 6 -27 -12 -44 -29 -27 -6 6 -17 11 -25 11 -16 0 -51 -39
-52 -57 0 -6 -11 -20 -25 -31 -30 -24 -31 -33 -5 -57 13 -11 27 -15 44 -11 16
4 26 1 30 -9 3 -8 13 -15 23 -15 13 0 32 28 63 93 l45 92 43 -2 c43 -2 102
-22 102 -35 0 -3 -11 -15 -25 -26 -26 -20 -35 -64 -12 -60 16 4 16 -104 -1
-110 -15 -5 -16 -42 -2 -42 6 0 10 -16 10 -35 0 -18 6 -38 14 -42 14 -8 27
-93 14 -93 -4 0 -10 -11 -14 -25 -3 -14 -14 -29 -23 -35 -14 -8 -12 -13 17
-39 17 -16 32 -35 32 -41 0 -6 -16 -27 -35 -47 -41 -42 -42 -48 -15 -63 11 -6
20 -8 20 -5 0 3 9 -4 21 -16 11 -11 18 -27 15 -35 -3 -8 -1 -14 4 -14 6 0 10
-6 10 -14 0 -8 5 -16 11 -18 5 -2 11 -19 11 -38 1 -44 6 -54 23 -40 17 14 118
7 123 -9 2 -6 7 -9 12 -6 4 2 19 -6 32 -18 18 -17 24 -33 23 -60 0 -27 3 -36
12 -33 7 3 13 -1 13 -9 0 -8 4 -15 9 -15 6 0 7 11 1 28 -4 15 -11 39 -14 53
-3 15 -26 43 -53 65 -43 36 -52 39 -103 37 l-57 -2 -22 64 c-13 35 -29 69 -36
75 -8 6 -11 19 -8 28 4 14 3 15 -6 2 -7 -10 -13 -12 -21 -4 -7 7 -1 23 21 52
l31 42 -20 32 c-20 31 -20 33 -2 67 21 42 20 113 -2 135 -23 22 -30 100 -14
147 10 27 11 50 6 71 -7 24 -5 36 12 59 19 26 20 31 8 55 -24 43 -116 69 -178
49 -25 -7 -28 -2 -9 17 41 43 59 104 39 135 -11 17 -63 35 -87 29 -15 -4 -24
2 -33 23 -7 16 -26 34 -41 41 -19 8 -31 21 -34 38 -2 15 -7 34 -11 43 -5 11 4
21 33 35 27 13 46 32 60 60 25 49 26 71 5 123 -15 39 -40 55 -79 51 -26 -2
-100 -37 -114 -54 -9 -11 -61 -20 -61 -11 0 1 7 19 15 39 10 23 24 38 40 42
14 3 25 12 25 20 0 8 5 14 10 14 6 0 10 6 10 14 0 16 -102 70 -135 72 -39 2
-45 4 -45 19 0 9 -7 18 -15 21 -23 9 -13 67 19 104 14 17 26 36 26 41 0 5 9
18 21 30 16 16 28 19 57 15 46 -7 63 5 90 67 19 42 24 48 44 42 13 -4 25 -8
28 -8 3 -1 20 4 38 10 24 9 37 23 48 50 8 21 24 54 35 73 11 19 23 42 25 51
10 30 49 44 83 29 17 -7 31 -18 31 -24 0 -16 114 -49 140 -41 28 9 60 44 60
66 0 10 -11 30 -25 45 -14 15 -25 23 -25 19 0 -4 -7 -2 -15 5 -8 7 -12 16 -9
21 3 5 0 9 -5 9 -6 0 -11 5 -11 10 0 15 96 12 135 -4 19 -8 35 -22 35 -31 0
-9 11 -37 24 -63 32 -65 38 -104 20 -131 -8 -12 -13 -30 -9 -40 7 -22 67 -71
87 -71 8 0 20 -6 27 -12 8 -9 43 -12 109 -11 89 2 102 -1 154 -27 32 -15 70
-38 85 -50 16 -11 57 -42 93 -68 75 -54 91 -71 127 -132 67 -116 87 -140 133
-157 61 -23 85 -38 177 -109 43 -33 98 -68 123 -78 25 -9 61 -28 80 -40 19
-13 45 -26 57 -30 30 -9 129 -107 138 -135 4 -13 36 -59 72 -104 36 -44 82
-105 102 -135 20 -30 44 -66 54 -81 36 -51 97 -189 97 -220 0 -25 -6 -34 -37
-50 -31 -15 -68 -20 -198 -24 -88 -3 -171 -8 -185 -11 -14 -3 -38 -8 -55 -11
-106 -16 -209 -55 -225 -85 -6 -10 -24 -22 -42 -25 -21 -5 -57 -32 -99 -72
-37 -35 -70 -63 -75 -62 -34 6 -75 -4 -97 -25 -15 -14 -50 -37 -79 -51 -29
-14 -69 -44 -89 -66 -20 -21 -45 -39 -55 -39 -38 0 -107 -31 -137 -62 -19 -19
-33 -26 -35 -19 -6 17 -52 -27 -52 -49 0 -10 -9 -28 -19 -41 -14 -19 -19 -39
-17 -83 1 -45 -3 -60 -16 -67 -9 -5 -20 -26 -24 -47 -10 -50 -139 -175 -166
-161 -10 5 -18 15 -18 22 0 7 -12 30 -27 51 -14 22 -28 53 -30 70 -6 46 24
132 53 151 38 24 28 37 -11 14 -23 -14 -35 -28 -35 -43 0 -12 -7 -31 -15 -43
-8 -11 -16 -36 -17 -54 -1 -19 -6 -37 -12 -41 -5 -3 7 -29 27 -57 21 -28 37
-62 37 -76 0 -20 7 -26 39 -35 35 -9 41 -8 70 17 17 15 31 33 31 39 0 7 4 14
9 16 5 2 32 25 60 51 45 43 49 50 38 68 -10 16 -9 21 3 29 8 5 25 10 36 10 28
0 39 29 18 45 -12 8 -15 23 -12 53 2 23 -1 44 -7 46 -5 2 0 5 13 5 19 1 22 6
22 46 0 25 5 45 10 45 6 0 10 -9 10 -20 0 -18 3 -18 39 8 21 15 36 33 34 40
-5 11 9 17 30 13 4 -1 18 4 30 10 12 7 34 14 50 15 41 5 63 20 76 51 9 21 34
38 92 66 71 34 79 41 73 60 -6 18 -4 20 7 11 8 -5 31 -9 52 -8 33 1 48 10 101
63 34 33 69 61 78 61 9 0 23 7 32 15 8 9 18 16 21 15 19 -1 23 2 27 18 3 11
23 23 49 31 24 7 64 20 89 27 68 21 269 41 370 37 82 -3 93 -1 142 25 45 25
53 34 56 61 3 31 -32 157 -46 163 -4 2 -22 32 -41 68 -19 36 -37 67 -41 70 -3
3 -22 28 -40 55 -19 28 -65 89 -102 137 -37 47 -68 93 -68 101 0 13 -37 50
-115 115 -15 12 -38 25 -51 28 -13 3 -24 9 -24 13 0 9 -55 36 -105 53 -22 7
-42 15 -45 18 -3 3 -25 21 -50 40 -25 19 -56 44 -69 57 -35 34 -80 58 -133 74
-26 7 -44 17 -42 21 3 5 -2 11 -10 14 -9 3 -16 12 -16 20 0 13 -31 69 -81 146
-13 20 -29 37 -36 38 -6 0 -20 10 -30 23 -10 12 -29 27 -43 33 -14 6 -46 28
-73 48 -26 20 -53 36 -61 36 -8 0 -16 7 -20 15 -3 8 -14 15 -24 15 -11 0 -31
9 -45 21 -21 16 -30 18 -47 9 -11 -6 -29 -8 -40 -5 -10 3 -21 2 -24 -3 -6 -11
-89 1 -136 19 -33 13 -69 45 -70 62 0 4 16 7 35 7 33 0 34 1 23 25 -6 14 -15
25 -20 25 -4 0 -8 11 -8 25 0 14 -13 49 -30 78 -16 30 -30 63 -30 76 0 14 -9
25 -27 32 -16 6 -35 15 -44 20 -9 4 -66 9 -125 10 -64 1 -115 6 -123 13 -8 6
-16 10 -18 8 -10 -9 -94 13 -109 29 -26 29 -33 23 -31 -23 l2 -42 -37 3 c-28
2 -52 -6 -92 -28 -29 -17 -66 -31 -82 -31 -16 -1 -47 -8 -69 -16 -95 -36 -115
-37 -173 -8 -29 15 -76 29 -103 32 -27 2 -52 9 -55 13 -3 5 -14 9 -25 9 -17 0
-18 3 -8 21 9 19 7 25 -16 44 -25 19 -33 20 -67 11 -55 -15 -79 3 -93 67 -3
15 -10 25 -15 22 -5 -3 -11 -1 -14 4 -4 5 0 11 7 13 10 2 11 11 5 35 -8 32
-42 51 -76 45 -18 -4 -26 26 -15 61 14 48 6 65 -35 77 -47 13 -39 14 -97 -13z
m1036 -1867 c15 0 10 -25 -10 -47 -11 -12 -17 -24 -14 -27 6 -5 -57 3 -65 9
-1 1 9 15 23 31 14 16 25 33 25 38 0 4 7 5 16 2 9 -3 20 -6 25 -6z m399 -800
c0 -5 -5 -10 -11 -10 -5 0 -7 5 -4 10 3 6 8 10 11 10 2 0 4 -4 4 -10z"/>
<path d="M2149 8753 c-13 -16 -12 -17 4 -4 9 7 17 15 17 17 0 8 -8 3 -21 -13z"/>
<path d="M1930 8586 c0 -8 5 -18 12 -22 7 -5 8 -3 3 6 -4 7 -2 16 6 21 11 7
10 9 -3 9 -10 0 -18 -6 -18 -14z"/>
<path d="M1704 8126 c-30 -33 -32 -37 -27 -97 5 -53 3 -64 -13 -76 -29 -21
-34 -16 -34 37 0 42 -4 52 -25 66 -45 29 -82 1 -83 -64 0 -20 -12 -46 -30 -70
-16 -20 -42 -59 -57 -87 -16 -27 -31 -52 -35 -55 -3 -3 -18 -31 -33 -64 -35
-73 -31 -130 14 -218 13 -26 11 -30 -11 -18 -11 6 -20 7 -20 2 0 -9 32 -21 53
-22 12 0 8 33 -8 64 -8 15 -15 43 -15 60 0 18 -5 37 -12 44 -9 9 -9 15 0 24 7
7 12 19 12 27 0 21 108 199 143 236 24 25 28 36 24 72 -4 42 6 63 30 63 18 0
45 -62 32 -74 -10 -11 -13 -106 -3 -106 3 0 16 13 30 29 17 20 30 27 44 24 19
-5 20 0 20 86 0 69 3 91 13 91 11 0 37 39 37 55 0 13 -18 1 -46 -29z"/>
<path d="M1938 7763 c7 -3 16 -2 19 1 4 3 -2 6 -13 5 -11 0 -14 -3 -6 -6z"/>
<path d="M1165 7492 l-18 -27 24 21 c21 19 33 21 84 17 33 -3 58 -3 55 -1 -3
3 -33 8 -67 11 -59 6 -62 5 -78 -21z"/>
<path d="M1877 7484 c-14 -13 -38 -24 -52 -24 -31 0 -32 -14 -4 -38 12 -9 27
-23 33 -30 6 -7 17 -19 24 -27 20 -22 62 -19 62 4 0 11 18 34 40 51 63 50 51
80 -36 86 -31 2 -46 -3 -67 -22z m103 -23 c0 -5 -9 -13 -21 -16 -11 -4 -18 -9
-15 -12 6 -6 -32 -43 -43 -43 -27 1 -36 54 -11 70 19 12 90 13 90 1z"/>
<path d="M1093 7473 c9 -2 25 -2 35 0 9 3 1 5 -18 5 -19 0 -27 -2 -17 -5z"/>
<path d="M2185 7309 c-11 -17 1 -21 15 -4 8 9 8 15 2 15 -6 0 -14 -5 -17 -11z"/>
<path d="M2241 7244 c0 -11 3 -14 6 -6 3 7 2 16 -1 19 -3 4 -6 -2 -5 -13z"/>
<path d="M2254 7196 c-4 -10 -2 -27 4 -39 6 -12 13 -29 16 -37 3 -8 3 8 -1 35
-6 57 -10 65 -19 41z"/>
<path d="M2290 7078 c16 -19 12 -104 -5 -118 -9 -7 -13 -15 -10 -18 3 -3 0
-11 -7 -19 -8 -11 -8 -17 2 -26 10 -9 11 -9 6 0 -4 7 4 29 17 50 26 42 27 108
1 131 -9 8 -10 8 -4 0z"/>
<path d="M2295 6859 c5 -20 1 -31 -17 -45 -13 -11 -27 -27 -31 -37 -4 -10 10
-1 30 20 36 37 42 58 21 78 -6 7 -7 1 -3 -16z"/>
<path d="M2278 6703 c7 -3 16 -2 19 1 4 3 -2 6 -13 5 -11 0 -14 -3 -6 -6z"/>
<path d="M2310 6691 c0 -6 5 -13 11 -16 5 -4 8 -12 6 -18 -2 -6 4 -19 12 -29
9 -10 18 -35 21 -56 6 -48 38 -65 101 -54 35 6 51 4 77 -11 17 -10 32 -23 32
-28 0 -5 5 -9 10 -9 21 0 9 18 -29 43 -36 24 -46 26 -104 20 -61 -5 -64 -5
-70 18 -4 13 -7 34 -7 45 0 12 -6 27 -14 33 -8 7 -18 26 -21 42 -6 27 -25 42
-25 20z"/>
<path d="M2580 6420 c0 -5 5 -10 10 -10 6 0 10 5 10 10 0 6 -4 10 -10 10 -5 0
-10 -4 -10 -10z"/>
<path d="M2527 6363 c-4 -3 -7 -16 -7 -28 0 -11 -5 -26 -11 -32 -5 -5 -11 -24
-11 -42 -1 -29 -3 -31 -32 -26 -17 3 -96 1 -176 -3 -84 -5 -150 -5 -157 0 -6
5 -36 3 -74 -6 -34 -8 -69 -12 -78 -9 -14 4 -14 3 -1 -6 8 -5 12 -11 10 -13
-3 -2 -21 -15 -42 -28 -36 -24 -67 -88 -53 -110 3 -6 0 -10 -8 -10 -8 0 -20
-7 -27 -15 -13 -16 -31 -10 -67 24 -25 24 -99 52 -118 44 -18 -6 -45 -65 -45
-95 0 -14 11 -38 25 -54 19 -21 24 -36 20 -54 -18 -72 -17 -86 9 -117 31 -36
32 -43 8 -43 -10 0 -27 -7 -38 -14 -18 -13 -25 -13 -54 2 -19 9 -38 26 -44 36
-23 42 -43 59 -91 82 -27 14 -63 33 -80 43 -16 10 -38 16 -47 13 -20 -5 -24 8
-7 25 20 20 13 92 -10 112 -12 10 -21 22 -21 27 0 5 -12 20 -26 34 -14 13 -30
33 -35 45 -38 87 -107 129 -206 127 -13 0 -20 4 -17 9 3 5 2 14 -1 20 -10 16
-45 -20 -45 -47 0 -26 19 -42 30 -25 4 7 11 11 16 10 5 -1 17 1 26 5 11 5 23
2 34 -8 12 -13 19 -14 29 -6 10 9 19 6 34 -9 12 -12 25 -21 30 -21 5 0 16 -16
25 -35 9 -19 22 -35 28 -35 6 0 8 -12 4 -31 -5 -29 -4 -31 18 -25 16 4 26 1
30 -9 3 -8 2 -15 -3 -15 -5 0 -11 -8 -13 -18 -5 -16 0 -18 28 -15 19 2 34 -1
34 -7 0 -5 -5 -10 -11 -10 -8 0 -7 -6 2 -17 11 -13 11 -17 1 -20 -6 -3 -9 -9
-6 -14 3 -6 -1 -18 -10 -27 -8 -10 -14 -27 -13 -40 1 -19 5 -21 37 -16 41 6
91 -10 88 -28 -2 -7 4 -12 12 -11 25 4 95 -42 94 -60 -1 -9 2 -14 7 -11 5 3
12 -3 16 -13 9 -23 29 -39 71 -58 30 -13 34 -13 52 5 19 19 40 26 89 32 24 3
23 4 -17 51 -42 48 -54 90 -29 100 24 9 8 65 -24 88 -21 15 -29 29 -29 50 0
25 12 62 26 78 8 9 103 -46 134 -79 l36 -37 18 24 c9 13 30 26 46 29 26 6 28
8 18 36 -13 37 4 73 43 90 15 6 25 17 22 24 -2 7 12 14 39 19 24 4 55 9 70 11
14 3 29 1 32 -4 5 -8 112 -7 241 2 34 3 77 1 98 -4 l37 -8 0 44 c0 24 -1 46
-2 48 -2 2 4 12 13 22 8 11 16 29 17 42 1 24 -1 26 -11 15z"/>
<path d="M2035 6166 c-33 -14 -95 -71 -95 -87 0 -17 72 -89 90 -89 10 0 25 12
33 28 7 15 23 45 34 67 12 22 24 52 27 68 6 25 4 27 -26 27 -18 -1 -47 -7 -63
-14z m59 -32 c-3 -34 -57 -114 -73 -111 -8 1 -24 17 -34 35 -23 39 -14 56 48
82 52 22 62 21 59 -6z"/>
<path d="M1676 6037 c-8 -43 -2 -60 27 -72 16 -7 23 -20 25 -48 2 -21 7 -37
10 -35 4 2 29 12 55 23 26 11 47 27 47 35 0 24 -63 85 -115 110 -16 8 -33 16
-36 18 -4 1 -9 -12 -13 -31z m44 -12 c7 -8 18 -15 25 -15 15 0 65 -45 65 -59
0 -16 -43 -36 -48 -22 -2 6 -8 9 -13 5 -5 -3 -8 -2 -7 3 4 12 -25 48 -44 56
-18 6 -24 28 -11 40 10 11 19 8 33 -8z"/>
</g>
</svg>
